<?xml version="1.0" encoding="iso-8859-1"?>
<!-- Generator: Adobe Illustrator 19.0.0, SVG Export Plug-In . SVG Version: 6.00 Build 0)  -->
<svg version="1.1" id="Layer_1" xmlns="http://www.w3.org/2000/svg" xmlns:xlink="http://www.w3.org/1999/xlink" x="0px" y="0px"
	 viewBox="0 0 512 512" style="enable-background:new 0 0 512 512;" xml:space="preserve">
<path style="fill:#5A6B96;" d="M298.894,10.894H30.366c-10.078,0-18.247,8.169-18.247,18.247V482.86
	c0,10.078,8.169,18.247,18.247,18.247h268.528c10.078,0,18.247-8.169,18.247-18.247V29.14
	C317.14,19.063,308.971,10.894,298.894,10.894z"/>
<rect x="12.119" y="54.468" style="fill:#EFEFEF;" width="305.021" height="359.489"/>
<path style="fill:#FBC640;" d="M474.281,10.894H274.928c-14.139,0-25.6,11.461-25.6,25.6v123.098c0,14.139,11.461,25.6,25.6,25.6
	h42.303v55.92l55.921-55.92h101.129c14.139,0,25.6-11.461,25.6-25.6V36.494C499.881,22.355,488.42,10.894,474.281,10.894z"/>
<g>
	<path style="fill:#231F20;" d="M186.96,446.637h-44.664c-6.015,0-10.894,4.878-10.894,10.894c0,6.015,4.878,10.894,10.894,10.894
		h44.664c6.015,0,10.894-4.878,10.894-10.894C197.853,451.515,192.976,446.637,186.96,446.637z"/>
	<path style="fill:#231F20;" d="M474.281,0H298.894h-23.966H30.366C14.298,0,1.226,13.072,1.226,29.14V482.86
		c0,16.068,13.072,29.14,29.14,29.14h268.528c16.068,0,29.14-13.072,29.14-29.14V245.716l49.63-49.631h96.617
		c20.123,0,36.494-16.371,36.494-36.494V36.494C510.774,16.371,494.404,0,474.281,0z M306.247,403.064H23.013V65.362h215.421v94.23
		c0,20.123,16.371,36.494,36.494,36.494h31.319V403.064z M30.366,21.787H241.54c-1.991,4.502-3.106,9.475-3.106,14.706v7.081H23.013
		V29.14C23.013,25.086,26.311,21.787,30.366,21.787z M298.894,490.213H30.366c-4.055,0-7.353-3.299-7.353-7.353v-58.009h283.234
		v58.009C306.247,486.914,302.948,490.213,298.894,490.213z M488.987,159.591c0,8.109-6.597,14.706-14.706,14.706h-101.13
		c-2.889,0-5.659,1.148-7.703,3.191l-37.324,37.325v-29.622c0-6.015-4.878-10.894-10.894-10.894h-42.303
		c-8.109,0-14.706-6.597-14.706-14.706V36.494c0-8.109,6.597-14.706,14.706-14.706h199.353c8.109,0,14.706,6.597,14.706,14.706
		V159.591z"/>
	<path style="fill:#231F20;" d="M374.604,38.49c-6.015,0-10.894,4.878-10.894,10.894v51.927c0,6.015,4.878,10.894,10.894,10.894
		c6.015,0,10.894-4.878,10.894-10.894V49.384C385.498,43.369,380.62,38.49,374.604,38.49z"/>
	<path style="fill:#231F20;" d="M374.604,133.991c-6.015,0-10.894,4.878-10.894,10.894v1.089c0,6.015,4.878,10.894,10.894,10.894
		c6.015,0,10.894-4.878,10.894-10.894v-1.089C385.498,138.87,380.62,133.991,374.604,133.991z"/>
</g>
<g>
</g>
<g>
</g>
<g>
</g>
<g>
</g>
<g>
</g>
<g>
</g>
<g>
</g>
<g>
</g>
<g>
</g>
<g>
</g>
<g>
</g>
<g>
</g>
<g>
</g>
<g>
</g>
<g>
</g>
</svg>
