<svg width="45" height="45" viewBox="0 0 28 28" fill="none"  xmlns="http://www.w3.org/2000/svg">
<path d="M13.7083 5.25001H12.5417H11.6667V3.79168C11.6667 2.98668 11.0133 2.33334 10.2083 2.33334H7.875C7.07 2.33334 6.41667 2.98668 6.41667 3.79168V5.25001H5.54167H4.375C3.89083 5.25001 3.5 5.64084 3.5 6.12501C3.5 6.60918 3.89083 7.00001 4.375 7.00001H4.66667V16.9167C4.66667 18.2058 5.71083 19.25 7 19.25H8.16667V24.7917C8.16667 25.2758 8.5575 25.6667 9.04167 25.6667C9.52583 25.6667 9.91667 25.2758 9.91667 24.7917V19.25H11.0833C12.3725 19.25 13.4167 18.2058 13.4167 16.9167V7.00001H13.7083C14.1925 7.00001 14.5833 6.60918 14.5833 6.12501C14.5833 5.64084 14.1925 5.25001 13.7083 5.25001ZM8.16667 4.08334H9.91667V5.25001H8.16667V4.08334ZM11.6667 8.75001H9.625C9.14083 8.75001 8.75 9.14084 8.75 9.62501C8.75 10.1092 9.14083 10.5 9.625 10.5H11.6667V12.25H9.625C9.14083 12.25 8.75 12.6408 8.75 13.125C8.75 13.6092 9.14083 14 9.625 14H11.6667V16.9167C11.6667 17.2375 11.4042 17.5 11.0833 17.5H7C6.67917 17.5 6.41667 17.2375 6.41667 16.9167V7.00001H11.6667V8.75001Z" fill="#1A73E8"/>
<path d="M23.8584 14.3092L23.0417 13.2184C22.855 12.9675 22.75 12.6584 22.75 12.3434V11.6667H23.0417C23.5259 11.6667 23.9167 11.2759 23.9167 10.7917C23.9167 10.3075 23.5259 9.91669 23.0417 9.91669H21.875H18.9584H17.7917C17.3075 9.91669 16.9167 10.3075 16.9167 10.7917C16.9167 11.2759 17.3075 11.6667 17.7917 11.6667H18.0834V12.3492C18.0834 12.6642 17.9784 12.9734 17.7917 13.2242L16.975 14.315C16.5609 14.8692 16.3334 15.5517 16.3334 16.24V23.3334C16.3334 24.6225 17.3775 25.6667 18.6667 25.6667H22.1667C23.4559 25.6667 24.5 24.6225 24.5 23.3334V16.2342C24.5 15.5459 24.2725 14.8634 23.8584 14.3092ZM18.0834 18.6667H22.75V20.4167H18.0834V18.6667ZM18.375 15.3592L19.1917 14.2684C19.6059 13.7142 19.8334 13.0317 19.8334 12.3434V11.6667H21V12.3492C21 13.0375 21.2275 13.72 21.6417 14.2742L22.4584 15.365C22.645 15.6159 22.75 15.925 22.75 16.24V16.9167H18.0834V16.2342C18.0834 15.925 18.1884 15.61 18.375 15.3592ZM22.1667 23.9167H18.6667C18.3459 23.9167 18.0834 23.6542 18.0834 23.3334V22.1667H22.75V23.3334C22.75 23.6542 22.4875 23.9167 22.1667 23.9167Z" fill="#1A73E8"/>
</svg>
